<?xml version="1.0" encoding="UTF-8" standalone="no"?>
<!-- Created with Inkscape (http://www.inkscape.org/) -->

<svg
   width="210mm"
   height="297mm"
   viewBox="0 0 210 297"
   version="1.1"
   id="svg104670"
   inkscape:version="1.2.2 (732a01da63, 2022-12-09)"
   sodipodi:docname="Graphics_Publishing.svg"
   xmlns:inkscape="http://www.inkscape.org/namespaces/inkscape"
   xmlns:sodipodi="http://sodipodi.sourceforge.net/DTD/sodipodi-0.dtd"
   xmlns="http://www.w3.org/2000/svg"
   xmlns:svg="http://www.w3.org/2000/svg">
  <sodipodi:namedview
     id="namedview104672"
     pagecolor="#505050"
     bordercolor="#eeeeee"
     borderopacity="1"
     inkscape:showpageshadow="0"
     inkscape:pageopacity="0"
     inkscape:pagecheckerboard="0"
     inkscape:deskcolor="#505050"
     inkscape:document-units="mm"
     showgrid="false"
     inkscape:zoom="0.84096521"
     inkscape:cx="441.7543"
     inkscape:cy="258.03683"
     inkscape:window-width="1920"
     inkscape:window-height="1027"
     inkscape:window-x="-8"
     inkscape:window-y="-8"
     inkscape:window-maximized="1"
     inkscape:current-layer="layer1" />
  <defs
     id="defs104667" />
  <g
     inkscape:label="Layer 1"
     inkscape:groupmode="layer"
     id="layer1">
    <g
       id="g1292"
       transform="matrix(1,0,0,0.99968192,7.558585,17.06467)"
       style="stroke-width:1.00016">
      <path
         id="rect78909-0-1-6-2-2-5"
         style="fill:#754232;fill-opacity:1;stroke:none;stroke-width:0.250038;stroke-linecap:round;stroke-linejoin:round;stroke-dasharray:none;stroke-opacity:1;paint-order:stroke markers fill"
         d="m 97.44143,-17.0701 c -3.0374,0 -5.5002,2.4625 -5.4999,5.4999 l 5e-4,5.4994 10.9988,6e-4 h 5e-4 87.9993 v -8.0001 h -87.9998 v 2.465 c -0.019,-3.0211 -2.474,-5.4648 -5.4994,-5.4648 z m -5.4999,5.4999 v -2.5001 H 3.9416 v 8.0001 h 87.99993 z" />
      <path
         id="path77366-5-9-5-5-4-1-2-6-7"
         style="fill:#cd894a;fill-opacity:1;stroke-width:0.250039;stroke-linecap:round;stroke-linejoin:round;paint-order:stroke markers fill"
         d="m 101.94143,-10.5698 v 4.4997 l -8.9996,-5e-4 -4e-4,-4.4997 c -2e-4,-2.4852 2.0146,-4.4998 4.4998,-4.4998 2.4852,0 4.5002,2.015 4.5002,4.5003 z"
         sodipodi:nodetypes="sccsss" />
      <path
         id="path77366-5-9-5-3-4-1-6-1-1-7"
         style="fill:#e6b983;fill-opacity:1;stroke-width:0.25004;stroke-linecap:round;stroke-linejoin:round;paint-order:stroke markers fill"
         d="m 97.44143,-12.0663 c -1.6568,0 -3,1.343 -2.9998,2.9999 l 5e-4,2.9998 h 5.9996 v -2.9998 c 0,-1.6568 -1.3435,-2.9999 -3.0003,-2.9999 z m -25.5003,1.9958 c -1.1045,0 -1.9999,0.8953 -1.9998,1.9999 l 5e-4,1.9998 3.9997,6e-4 v -1.9999 c 0,-1.1046 -0.8959,-2.0004 -2.0004,-2.0004 z M 7.9414,-10.07 c -1.1045,0 -2,0.8953 -1.9999,1.9999 v 1.9999 h 3.9998 v -1.9999 c 0,-1.1046 -0.8954,-1.9999 -1.9999,-1.9999 z m 8,0 c -1.1045,0 -1.9999,0.8953 -1.9998,1.9999 v 1.9999 h 3.99973 v -1.9999 c 0,-1.1046 -0.8953,-1.9999 -1.99993,-1.9999 z m 8.00013,0 c -1.1045,0 -2,0.8953 -1.9999,1.9999 v 1.9999 h 3.9998 v -1.9999 c 0,-1.1046 -0.8954,-1.9999 -1.9999,-1.9999 z m 8,0 c -1.1045,0 -2,0.8953 -1.9999,1.9999 v 1.9999 h 3.9998 v -1.9999 c 0,-1.1046 -0.8954,-1.9999 -1.9999,-1.9999 z m 8,0 c -1.1045,0 -2.0005,0.8953 -2.0004,1.9999 l 6e-4,1.9999 h 3.9997 v -1.9999 c 0,-1.1046 -0.8953,-1.9999 -1.9999,-1.9999 z m 8.0001,0 c -1.1045,0 -2.0005,0.8953 -2.0004,1.9999 l 5e-4,1.9999 h 3.9997 v -1.9999 c 0,-1.1046 -0.8953,-1.9999 -1.9998,-1.9999 z m 7.9995,0 c -1.1045,0 -2,0.8953 -1.9999,1.9999 l 5e-4,1.9999 h 3.9998 v -1.9999 c 0,-1.1046 -0.8959,-1.9999 -2.0004,-1.9999 z m 8,0 c -1.1045,0 -2,0.8953 -1.9999,1.9999 l 5e-4,1.9999 h 3.9998 v -1.9999 c 0,-1.1046 -0.8959,-1.9999 -2.0004,-1.9999 z m 16.0001,0 c -1.1046,0 -2,0.8953 -1.9999,1.9999 l 5e-4,1.9999 h 3.9998 v -1.9999 c 0,-1.1046 -0.8959,-1.9999 -2.0004,-1.9999 z m 8,0 c -1.1045,0 -2,0.8953 -1.9999,1.9999 v 1.9999 h 4.0003 v -1.9999 c 0,-1.1046 -0.8959,-1.9999 -2.0004,-1.9999 z m 18.9999,0 c -1.1045,0 -2,0.8953 -1.9999,1.9999 v 1.9999 h 3.9997 v -1.9999 c 0,-1.1046 -0.8953,-1.9999 -1.9998,-1.9999 z m 8,0 c -1.1045,0 -2,0.8953 -1.9999,1.9999 v 1.9999 h 3.9998 v -1.9999 c 0,-1.1046 -0.8954,-1.9999 -1.9999,-1.9999 z m 8,0 c -1.1045,0 -2,0.8953 -1.9999,1.9999 v 1.9999 l 3.9998,5e-4 v -1.9999 c 0,-1.1046 -0.8954,-2.0004 -1.9999,-2.0004 z m 8,0 c -1.1045,0 -1.9999,0.8953 -1.9998,1.9999 v 1.9999 h 3.9997 v -1.9999 c 0,-1.1046 -0.8953,-1.9999 -1.9999,-1.9999 z m 8.0001,0 c -1.1045,0 -2,0.8953 -1.9999,1.9999 v 1.9999 h 3.9998 v -1.9999 c 0,-1.1046 -0.8954,-1.9999 -1.9999,-1.9999 z m 8,0 c -1.1045,0 -2,0.8953 -1.9999,1.9999 v 1.9999 h 3.9998 v -1.9999 c 0,-1.1046 -0.8954,-1.9999 -1.9999,-1.9999 z m 8,0 c -1.1045,0 -1.9999,0.8953 -1.9998,1.9999 v 1.9999 l 3.9997,5e-4 v -1.9999 c 0,-1.1046 -0.8953,-2.0004 -1.9999,-2.0004 z m 8.0001,0 c -1.1045,0 -2,0.8953 -1.9999,1.9999 v 1.9999 h 3.9997 v -1.9999 c 0,-1.1046 -0.8953,-1.9999 -1.9998,-1.9999 z m 8,0 c -1.1045,0 -2.0005,0.8953 -2.0004,1.9999 l 5e-4,1.9999 h 3.9998 v -1.9999 c 0,-1.1046 -0.8954,-1.9999 -1.9999,-1.9999 z m 7.9995,0 c -1.1045,0 -2,0.8953 -1.9999,1.9999 l 5e-4,1.9999 h 3.9998 v -1.9999 c 0,-1.1046 -0.8959,-1.9999 -2.0004,-1.9999 z m 8,0 c -1.1045,0 -1.9999,0.8953 -1.9998,1.9999 l 5e-4,1.9999 h 3.9997 v -1.9999 c 0,-1.1046 -0.8959,-1.9999 -2.0004,-1.9999 z" />
      <path
         id="rect78911-9-0-28-1-9-6"
         style="fill:#361c1b;fill-opacity:1;stroke:none;stroke-width:0.250039;stroke-linecap:round;stroke-linejoin:round;stroke-dasharray:none;stroke-opacity:1;paint-order:stroke markers fill"
         d="m 74.94153,-15.0707 0.5002,1.0004 v 8.0001 h 0.9999 v -8.0001 l 0.5003,-1.0004 h -0.5003 -0.9999 z m -72.00033,5e-4 0.5002,0.9999 v 8.0001 h 0.9999 v -8.0001 l 0.5003,-0.9999 H 4.4413 3.4414 Z m 8,0 0.5002,0.9999 v 8.0001 h 1 v -8.0001 l 0.5002,-0.9999 h -0.5002 -1 z m 8.00013,0 0.5002,0.9999 v 8.0001 h 0.9999 v -8.0001 l 0.5002,-0.9999 h -0.5002 -0.9999 z m 8,0 0.5002,0.9999 v 8.0001 h 1 v -8.0001 l 0.5002,-0.9999 h -0.5002 -1 z m 8,0 0.5002,0.9999 v 8.0001 h 1 v -8.0001 l 0.5002,-0.9999 h -0.5002 -1 z m 8,0 0.5003,0.9999 v 8.0001 h 0.9999 v -8.0001 l 0.5002,-0.9999 h -0.5002 -0.9999 z m 8.0001,0 0.5002,0.9999 v 8.0001 h 0.9999 v -8.0001 l 0.5003,-0.9999 h -0.5003 -0.9999 z m 8,0 0.5002,0.9999 v 8.0001 h 1 v -8.0001 l 0.5002,-0.9999 h -0.5002 -1 z m 8,0 0.5003,0.9999 v 8.0001 h 0.9999 v -8.0001 l 0.5002,-0.9999 h -0.5002 -0.9999 z m 16.0001,0 0.5002,0.9999 v 8.0001 h 1 v -8.0001 l 0.5002,-0.9999 h -0.5002 -1 z m 8,0 0.5002,0.9999 v 8.0001 h 1 v -8.0001 l 0.5002,-0.9999 h -0.5002 -1 z m 10.9993,0 0.5003,0.9999 v 8.0001 h 0.9999 v -8.0001 l 0.5002,-0.9999 h -0.5002 -0.9999 z m 8.0001,0 0.5002,0.9999 v 8.0001 h 0.9999 v -8.0001 l 0.5003,-0.9999 h -0.5003 -0.9999 z m 8,0 0.5002,0.9999 v 8.0001 h 1 v -8.0001 l 0.5002,-0.9999 h -0.5002 -1 z m 8,0 0.5003,0.9999 v 8.0001 h 0.9999 v -8.0001 l 0.5002,-0.9999 h -0.5002 -0.9999 z m 8.0001,0 0.5002,0.9999 v 8.0001 h 0.9999 v -8.0001 l 0.5003,-0.9999 h -0.5003 -0.9999 z m 8,0 0.5002,0.9999 v 8.0001 h 1 v -8.0001 l 0.5002,-0.9999 h -0.5002 -1 z m 8,0 0.5002,0.9999 v 8.0001 h 1 v -8.0001 l 0.5002,-0.9999 h -0.5002 -1 z m 8,0 0.5003,0.9999 v 8.0001 h 0.9999 v -8.0001 l 0.5002,-0.9999 h -0.5002 -0.9999 z m 8.0001,0 0.5002,0.9999 v 8.0001 h 0.9999 v -8.0001 l 0.5003,-0.9999 h -0.5003 -0.9999 z m 8,0 0.5002,0.9999 v 8.0001 h 1 v -8.0001 l 0.5002,-0.9999 h -0.5002 -1 z m 8,0 0.5003,0.9999 v 8.0001 h 0.9999 v -8.0001 l 0.5002,-0.9999 h -0.5002 -0.9999 z m 8.0001,0 0.5002,0.9999 v 8.0001 h 0.9999 v -8.0001 l 0.5003,-0.9999 h -0.5003 -0.9999 z" />
    </g>
    <g
       id="g1394">
      <rect
         style="fill:#fff8bc;fill-opacity:1;stroke:none;stroke-width:0.250001;stroke-linecap:round;stroke-linejoin:round;stroke-dasharray:none;stroke-opacity:1;paint-order:stroke markers fill"
         id="rect100913-5-3"
         width="166.6875"
         height="132.29167"
         x="21.65625"
         y="16.999556" />
      <g
         id="g136544"
         transform="matrix(1.0096032,0,0,1.0096032,-1467.5234,-3034.8723)"
         style="stroke-width:0.990487">
        <path
           id="rect78909-0-1-6-2-2-5-8"
           style="fill:#754232;fill-opacity:1;stroke:none;stroke-width:0.24762;stroke-linecap:round;stroke-linejoin:round;stroke-dasharray:none;stroke-opacity:1;paint-order:stroke markers fill"
           d="m 1557.5658,3091.1948 c -17.2926,0 -31.3138,14.0195 -31.3121,31.3121 v 31.3092 h 62.6185 v 0 l 45.5499,6e-4 v -45.5462 l -45.5471,-6e-4 v 14.0337 c -0.1081,-17.1997 -14.085,-31.1122 -31.3092,-31.1122 z m -31.3121,31.3121 v -14.2336 h -45.7407 v 45.5462 h 45.7407 z"
           sodipodi:nodetypes="ccccccccccccccccc" />
        <path
           id="path77366-5-9-5-5-4-1-2-6-7-2"
           style="fill:#cd894a;fill-opacity:1;stroke-width:0.247621;stroke-linecap:round;stroke-linejoin:round;paint-order:stroke markers fill"
           d="m 1583.1852,3128.2024 v 25.6177 h -51.2366 v -25.6178 c 0,-14.1488 11.4696,-25.6183 25.6183,-25.6183 14.1488,0 25.6206,11.4718 25.6206,25.6212 z"
           sodipodi:nodetypes="sccsss" />
        <path
           id="path77366-5-9-5-3-4-1-6-1-1-7-0"
           style="fill:#e6b983;fill-opacity:1;stroke-width:0.247622;stroke-linecap:round;stroke-linejoin:round;paint-order:stroke markers fill"
           d="m 1557.5658,3119.6825 c -9.4325,0 -17.0797,7.646 -17.0785,17.079 v 17.0785 h 34.157 v -17.0785 c 0,-9.4325 -7.6488,-17.079 -17.0813,-17.079 z m -54.0867,11.3625 c -6.2881,0 -11.3864,5.0972 -11.3858,11.3859 v 11.3858 h 22.7745 v -11.3858 c 0,-6.2887 -5.1005,-11.3859 -11.3887,-11.3859 z m 108.1705,0 c -6.2882,0 -11.3864,5.0972 -11.3859,11.3859 v 11.3858 h 22.7712 v -11.3858 c 0,-6.2887 -5.0972,-11.3859 -11.3853,-11.3859 z"
           sodipodi:nodetypes="ccccsccscccssscccss" />
        <path
           id="rect78911-9-0-28-1-9-6-4"
           style="fill:#361c1b;fill-opacity:1;stroke:none;stroke-width:0.247621;stroke-linecap:round;stroke-linejoin:round;stroke-dasharray:none;stroke-opacity:1;paint-order:stroke markers fill"
           d="m 1475.0148,3102.5778 2.8477,5.6927 v 45.5462 h 5.6932 v -45.5462 l 2.8478,-5.6927 h -2.8478 -5.6932 z m 45.5457,0 2.8477,5.6927 v 45.5462 h 5.6932 v -45.5462 l 2.8478,-5.6927 h -2.8478 -5.6932 z m 62.6213,0 2.8483,5.6927 v 45.5462 h 5.6927 v -45.5462 l 2.8477,-5.6927 h -2.8477 -5.6927 z m 45.5463,0 2.8477,5.6927 v 45.5462 h 5.6927 v -45.5462 l 2.8483,-5.6927 h -2.8483 -5.6927 z"
           sodipodi:nodetypes="cccccccccccccccccccccccccccccccccccc" />
      </g>
      <text
         xml:space="preserve"
         style="font-size:19.7556px;line-height:1.25;font-family:sans-serif;text-align:center;text-anchor:middle;fill:#2d2433;fill-opacity:1;stroke-width:0.264583"
         x="105.64565"
         y="56.619186"
         id="text1217"><tspan
           sodipodi:role="line"
           id="tspan1215"
           style="font-style:normal;font-variant:normal;font-weight:normal;font-stretch:normal;font-size:19.7556px;font-family:Quintessential;-inkscape-font-specification:Quintessential;fill:#2d2433;fill-opacity:1;stroke-width:0.264583"
           x="105.64565"
           y="56.619186">The Palace Isn't Safe!</tspan></text>
    </g>
  </g>
</svg>
