<?xml version="1.0" encoding="UTF-8" standalone="no"?>
<!-- Created with Inkscape (http://www.inkscape.org/) -->

<svg
   width="210mm"
   height="297mm"
   viewBox="0 0 210 297"
   version="1.1"
   id="svg104670"
   inkscape:version="1.2.2 (732a01da63, 2022-12-09)"
   sodipodi:docname="Graphics_Final.svg"
   xmlns:inkscape="http://www.inkscape.org/namespaces/inkscape"
   xmlns:sodipodi="http://sodipodi.sourceforge.net/DTD/sodipodi-0.dtd"
   xmlns="http://www.w3.org/2000/svg"
   xmlns:svg="http://www.w3.org/2000/svg">
  <sodipodi:namedview
     id="namedview104672"
     pagecolor="#505050"
     bordercolor="#eeeeee"
     borderopacity="1"
     inkscape:showpageshadow="0"
     inkscape:pageopacity="0"
     inkscape:pagecheckerboard="0"
     inkscape:deskcolor="#505050"
     inkscape:document-units="mm"
     showgrid="false"
     inkscape:zoom="1.1893044"
     inkscape:cx="419.9934"
     inkscape:cy="86.605246"
     inkscape:window-width="1920"
     inkscape:window-height="1027"
     inkscape:window-x="-8"
     inkscape:window-y="-8"
     inkscape:window-maximized="1"
     inkscape:current-layer="layer1" />
  <defs
     id="defs104667" />
  <g
     inkscape:label="Layer 1"
     inkscape:groupmode="layer"
     id="layer1">
    <path
       id="path69960-7-0-4-9-6-9"
       style="fill:#2d2433;fill-opacity:1;stroke-width:1;stroke-linecap:round;stroke-linejoin:round;paint-order:stroke markers fill"
       d="m 99.99981,47.999707 c -0.013,0 -0.025,0.01 -0.031,0.021 0,0 -0.075,0.179 -0.1509,0.388 -0.075,0.2089 -0.1519,0.443 -0.1519,0.5759 0,0.1922 0.1486,0.3507 0.3333,0.3507 0.18469,0 0.33329,-0.1585 0.33329,-0.3507 0,-0.1329 -0.077,-0.367 -0.1519,-0.5759 -0.075,-0.209 -0.1504,-0.388 -0.1504,-0.388 0,-0.012 -0.018,-0.021 -0.031,-0.021 z m 5.00019,0 c -0.013,0 -0.025,0.01 -0.03,0.021 0,0 -0.076,0.179 -0.1509,0.388 -0.075,0.2089 -0.1519,0.443 -0.1519,0.5759 0,0.1922 0.1486,0.3507 0.3333,0.3507 0.1847,0 0.3333,-0.1585 0.3333,-0.3507 0,-0.1329 -0.077,-0.367 -0.1519,-0.5759 -0.075,-0.209 -0.1504,-0.388 -0.1504,-0.388 -0.01,-0.012 -0.018,-0.021 -0.031,-0.021 z m 4.9997,0 c -0.013,0 -0.025,0.01 -0.031,0.021 0,0 -0.076,0.179 -0.1509,0.388 -0.075,0.2089 -0.1519,0.443 -0.1519,0.5759 0,0.1922 0.1486,0.3507 0.3333,0.3507 0.1847,0 0.3333,-0.1585 0.3333,-0.3507 0,-0.1329 -0.077,-0.367 -0.1519,-0.5759 -0.075,-0.209 -0.1504,-0.388 -0.1504,-0.388 0,-0.012 -0.017,-0.021 -0.03,-0.021 z m -8.6124,0.5752 c 0,4e-4 -0.01,0 -0.01,0 0,0 -0.1794,0.073 -0.3803,0.1677 -0.2009,0.094 -0.4203,0.2059 -0.5142,0.3001 -0.1358,0.1358 -0.1425,0.3525 -0.012,0.4831 0.1306,0.1304 0.3474,0.124 0.4832,-0.012 0.094,-0.094 0.2048,-0.3137 0.2992,-0.5148 0.094,-0.2011 0.1674,-0.3809 0.1674,-0.3809 0,-0.012 0,-0.026 -0.01,-0.036 h -5e-4 c -0.01,-0.01 -0.017,-0.015 -0.026,-0.014 z m 5.0002,0 c 0,4e-4 -0.01,0 -0.01,0 0,0 -0.1794,0.073 -0.3803,0.1677 -0.2009,0.094 -0.4203,0.2059 -0.5142,0.3001 -0.1357,0.1358 -0.1425,0.3525 -0.012,0.4831 0.1306,0.1304 0.3475,0.124 0.4832,-0.012 0.094,-0.094 0.2048,-0.3137 0.2992,-0.5148 0.094,-0.2011 0.1674,-0.3809 0.1674,-0.3809 0.01,-0.012 0,-0.026 -0.01,-0.036 h -5e-4 c -0.01,-0.01 -0.017,-0.015 -0.026,-0.014 z m 4.9997,0 c 0,4e-4 -0.01,0 -0.01,0 0,0 -0.1799,0.073 -0.3808,0.1677 -0.2009,0.094 -0.4203,0.2059 -0.5142,0.3001 -0.1358,0.1358 -0.1425,0.3525 -0.012,0.4831 0.1306,0.1304 0.3474,0.124 0.4831,-0.012 0.094,-0.094 0.2049,-0.3137 0.2993,-0.5148 0.094,-0.2011 0.1679,-0.3809 0.1679,-0.3809 0,-0.012 0,-0.026 -0.01,-0.036 v 0 c -0.01,-0.01 -0.017,-0.015 -0.027,-0.014 z m -12.77489,6e-4 c -0.01,2e-4 -0.019,0 -0.026,0.011 h -5e-4 c -0.01,0.01 -0.012,0.024 -0.01,0.036 0,0 0.073,0.1801 0.1674,0.3813 0.094,0.2011 0.2053,0.4207 0.2992,0.5148 0.1357,0.136 0.3526,0.1425 0.4832,0.012 0.1306,-0.1308 0.1238,-0.3479 -0.012,-0.4838 -0.094,-0.094 -0.3133,-0.2054 -0.5142,-0.2995 -0.2009,-0.095 -0.3803,-0.1676 -0.3803,-0.1676 0,-5e-4 -0.01,0 -0.01,0 z m 5.00019,0 c -0.01,2e-4 -0.019,0 -0.026,0.011 h -5e-4 c -0.01,0.01 -0.012,0.024 -0.01,0.036 0,0 0.073,0.1801 0.1674,0.3813 0.094,0.2011 0.2053,0.4207 0.2992,0.5148 0.1357,0.136 0.3526,0.1425 0.4832,0.012 0.1306,-0.1308 0.1238,-0.3479 -0.012,-0.4838 -0.094,-0.094 -0.3133,-0.2054 -0.5142,-0.2995 -0.2009,-0.095 -0.3803,-0.1676 -0.3803,-0.1676 0,-5e-4 -0.01,0 -0.01,0 z m 4.9997,0 c -0.01,2e-4 -0.019,0 -0.026,0.011 h -5e-4 c -0.01,0.01 -0.012,0.024 -0.01,0.036 0,0 0.073,0.1801 0.1674,0.3813 0.094,0.2011 0.2053,0.4207 0.2992,0.5148 0.1357,0.136 0.3526,0.1425 0.4832,0.012 0.1306,-0.1308 0.1238,-0.3479 -0.012,-0.4838 -0.094,-0.094 -0.3133,-0.2054 -0.5142,-0.2995 -0.2009,-0.095 -0.3803,-0.1676 -0.3803,-0.1676 0,-5e-4 -0.01,0 -0.01,0 z m -9.62889,1.0926 c -0.1327,0 -0.3664,0.077 -0.5751,0.1521 -0.2088,0.076 -0.3881,0.151 -0.3881,0.151 -0.012,0.01 -0.02,0.018 -0.02,0.03 v 6e-4 c 2e-4,0.014 0.01,0.021 0.02,0.03 0,0 0.1793,0.075 0.3881,0.1505 0.2087,0.075 0.4423,0.152 0.5751,0.152 0.192,0 0.3499,-0.1488 0.3499,-0.3336 0,-0.1849 -0.1579,-0.3336 -0.3499,-0.3336 z m 2.03299,0 c -0.192,0 -0.3499,0.1487 -0.3499,0.3336 0,0.1849 0.1579,0.3337 0.3499,0.3337 0.1327,0 0.3669,-0.077 0.5756,-0.1521 0.2088,-0.075 0.3876,-0.1505 0.3876,-0.1505 0.012,-0.01 0.02,-0.017 0.02,-0.03 v -6e-4 c -2e-4,-0.013 -0.01,-0.025 -0.02,-0.03 0,0 -0.1788,-0.075 -0.3876,-0.151 -0.2087,-0.075 -0.4429,-0.1521 -0.5756,-0.1521 z m 2.9672,0 c -0.1327,0 -0.3669,0.077 -0.5756,0.1521 -0.2088,0.076 -0.3876,0.151 -0.3876,0.151 -0.012,0.01 -0.02,0.018 -0.02,0.03 v 6e-4 c 2e-4,0.014 0.01,0.021 0.02,0.03 0,0 0.1788,0.075 0.3876,0.1505 0.2087,0.075 0.4428,0.152 0.5756,0.152 0.192,0 0.3499,-0.1488 0.3499,-0.3336 0,-0.1849 -0.1579,-0.3336 -0.3499,-0.3336 z m 2.033,0 c -0.192,0 -0.3499,0.1487 -0.3499,0.3336 0,0.1849 0.1579,0.3337 0.3499,0.3337 0.1327,0 0.3669,-0.077 0.5757,-0.1521 0.2087,-0.075 0.3875,-0.1505 0.3875,-0.1505 0.012,-0.01 0.02,-0.017 0.02,-0.03 v -6e-4 c -2e-4,-0.013 -0.01,-0.025 -0.02,-0.03 0,0 -0.1788,-0.075 -0.3875,-0.151 -0.2088,-0.075 -0.443,-0.1521 -0.5757,-0.1521 z m 2.9667,0 c -0.1327,0 -0.3664,0.077 -0.5751,0.1521 -0.2088,0.076 -0.3876,0.151 -0.3876,0.151 -0.012,0.01 -0.021,0.018 -0.021,0.03 v 6e-4 c 2e-4,0.014 0.01,0.021 0.021,0.03 0,0 0.1788,0.075 0.3876,0.1505 0.2087,0.075 0.4423,0.152 0.5751,0.152 0.192,0 0.3499,-0.1488 0.3499,-0.3336 0,-0.1849 -0.1579,-0.3336 -0.3499,-0.3336 z m 2.0335,0 c -0.192,0 -0.3504,0.1487 -0.3504,0.3336 0,0.1849 0.1584,0.3337 0.3504,0.3337 0.1328,0 0.3664,-0.077 0.5752,-0.1521 0.2087,-0.075 0.3875,-0.1505 0.3875,-0.1505 0.012,-0.01 0.02,-0.017 0.021,-0.03 v -6e-4 c -2e-4,-0.013 -0.01,-0.025 -0.021,-0.03 0,0 -0.1788,-0.075 -0.3875,-0.151 -0.2088,-0.075 -0.4424,-0.1521 -0.5752,-0.1521 z m -11.03399,5e-4 c -0.1761,0.01 -0.3162,0.1552 -0.3162,0.3337 -1e-4,0.1843 0.1492,0.3337 0.3333,0.3337 0.18409,0 0.33329,-0.1494 0.33329,-0.3337 0,-0.1842 -0.1492,-0.3337 -0.33329,-0.3337 -0.01,0 -0.011,-1e-4 -0.017,0 z m 5.01729,0 a 0.33333335,0.33371712 0 0 0 -0.3333,0.3337 0.33333335,0.33371712 0 0 0 0.3333,0.3337 0.33333335,0.33371712 0 0 0 0.3333,-0.3337 0.33333335,0.33371712 0 0 0 -0.3333,-0.3337 z m 4.9997,0 a 0.33333335,0.33371712 0 0 0 -0.3333,0.3337 0.33333335,0.33371712 0 0 0 0.3333,0.3337 0.33333335,0.33371712 0 0 0 0.3333,-0.3337 0.33333335,0.33371712 0 0 0 -0.3333,-0.3337 z m 3.3166,0 c -0.1761,0.01 -0.3162,0.1547 -0.3163,0.3332 0,0.1843 0.1492,0.3336 0.3333,0.3336 0.14,0 0.2597,-0.086 0.3091,-0.2084 h 0.416 c 0.049,0.1223 0.169,0.2084 0.309,0.2084 0.1399,0 0.2596,-0.086 0.309,-0.2084 h 0.416 c 0.049,0.1223 0.1691,0.2084 0.309,0.2084 0.14,0 0.2602,-0.086 0.3096,-0.2084 h 0.4155 c 0.049,0.1223 0.1695,0.2084 0.3095,0.2084 0.1399,0 0.2596,-0.086 0.309,-0.2084 h 0.416 c 0.049,0.1223 0.1691,0.2084 0.309,0.2084 0.14,0 0.2597,-0.086 0.3091,-0.2084 h 0.416 c 0.049,0.1223 0.169,0.2084 0.309,0.2084 0.1399,0 0.2601,-0.086 0.3095,-0.2084 h 0.4155 c 0.049,0.1223 0.1696,0.2084 0.3095,0.2084 0.14,0 0.2597,-0.086 0.3091,-0.2084 h 0.4155 c 0.049,0.1223 0.1695,0.2084 0.3095,0.2084 0.1399,0 0.2596,-0.086 0.309,-0.2084 h 0.416 c 0.049,0.1223 0.1691,0.2084 0.309,0.2084 0.14,0 0.2597,-0.086 0.3091,-0.2084 h 0.416 c 0.049,0.1223 0.169,0.2084 0.309,0.2084 0.1399,0 0.2601,-0.086 0.3095,-0.2084 h 0.4155 c 0.049,0.1223 0.1696,0.2084 0.3096,0.2084 0.1399,0 0.2596,-0.086 0.309,-0.2084 h 0.416 c 0.049,0.1223 0.169,0.2084 0.309,0.2084 0.1399,0 0.2596,-0.086 0.309,-0.2084 h 0.416 c 0.049,0.1223 0.1691,0.2084 0.309,0.2084 0.14,0 0.2602,-0.086 0.3096,-0.2084 h 0.4155 c 0.049,0.1223 0.169,0.2084 0.309,0.2084 0.1399,0 0.2601,-0.086 0.3095,-0.2084 h 0.4155 c 0.049,0.1223 0.1696,0.2084 0.3096,0.2084 0.1399,0 0.2596,-0.086 0.309,-0.2084 h 0.416 c 0.049,0.1223 0.169,0.2084 0.309,0.2084 0.1399,0 0.2596,-0.086 0.309,-0.2084 h 0.416 c 0.049,0.1223 0.1691,0.2084 0.309,0.2084 0.14,0 0.2602,-0.086 0.3096,-0.2084 h 0.4155 c 0.049,0.1223 0.1696,0.2084 0.3095,0.2084 0.14,0 0.2596,-0.086 0.309,-0.2084 h 0.4155 c 0.049,0.1223 0.1696,0.2084 0.3096,0.2084 0.1399,0 0.2596,-0.086 0.309,-0.2084 h 0.416 c 0.049,0.1223 0.169,0.2084 0.309,0.2084 0.1399,0 0.2596,-0.086 0.309,-0.2084 h 0.416 c 0.049,0.1223 0.1691,0.2084 0.309,0.2084 0.14,0 0.2602,-0.086 0.3096,-0.2084 h 0.4155 c 0.049,0.1223 0.1696,0.2084 0.3095,0.2084 0.14,0 0.2596,-0.086 0.309,-0.2084 h 0.416 c 0.049,0.1223 0.1691,0.2084 0.309,0.2084 0.14,0 0.2597,-0.086 0.3091,-0.2084 h 0.416 c 0.049,0.1223 0.169,0.2084 0.309,0.2084 0.1399,0 0.2601,-0.086 0.3095,-0.2084 h 0.4155 c 0.049,0.1223 0.1691,0.2084 0.309,0.2084 0.14,0 0.2602,-0.086 0.3096,-0.2084 h 0.4155 c 0.049,0.1223 0.1696,0.2084 0.3095,0.2084 0.14,0 0.2596,-0.086 0.309,-0.2084 h 0.416 c 0.049,0.1223 0.1691,0.2084 0.309,0.2084 0.14,0 0.2597,-0.086 0.3091,-0.2084 h 0.416 c 0.049,0.1223 0.169,0.2084 0.309,0.2084 0.1399,0 0.2601,-0.086 0.3095,-0.2084 h 0.4155 c 0.049,0.1223 0.1696,0.2084 0.3096,0.2084 0.1399,0 0.2596,-0.086 0.309,-0.2084 h 0.416 c 0.049,0.1223 0.1691,0.2084 0.309,0.2084 0.14,0 0.2596,-0.086 0.309,-0.2084 h 0.416 c 0.049,0.1223 0.1691,0.2084 0.309,0.2084 0.14,0 0.2596,-0.086 0.3091,-0.2084 h 0.416 c 0.049,0.1223 0.169,0.2084 0.309,0.2084 0.1399,0 0.2601,-0.086 0.3095,-0.2084 h 0.4155 c 0.049,0.1223 0.1696,0.2084 0.3096,0.2084 0.1399,0 0.2596,-0.086 0.309,-0.2084 h 0.416 c 0.049,0.1223 0.169,0.2084 0.309,0.2084 0.1399,0 0.2596,-0.086 0.309,-0.2084 h 0.416 c 0.049,0.1223 0.1691,0.2084 0.309,0.2084 0.14,0 0.2602,-0.086 0.3096,-0.2084 h 0.4155 c 0.049,0.1223 0.1696,0.2084 0.3095,0.2084 0.14,0 0.2596,-0.086 0.309,-0.2084 h 0.4155 c 0.049,0.1223 0.1696,0.2084 0.3096,0.2084 0.1399,0 0.2596,-0.086 0.309,-0.2084 h 0.416 c 0.049,0.1223 0.169,0.2084 0.309,0.2084 0.1399,0 0.2596,-0.086 0.309,-0.2084 h 0.416 c 0.049,0.1223 0.1691,0.2084 0.309,0.2084 0.14,0 0.2602,-0.086 0.3096,-0.2084 h 0.4155 c 0.049,0.1223 0.1696,0.2084 0.3095,0.2084 0.1841,0 0.3334,-0.1493 0.3333,-0.3336 0,-0.1843 -0.1492,-0.3332 -0.3333,-0.3332 -0.1398,0 -0.26,0.086 -0.3095,0.2081 h -0.4155 c -0.05,-0.1222 -0.1697,-0.2081 -0.3096,-0.2081 -0.1398,0 -0.2595,0.086 -0.309,0.2081 h -0.416 c -0.05,-0.1222 -0.1692,-0.2081 -0.309,-0.2081 -0.1398,0 -0.2595,0.086 -0.309,0.2081 h -0.416 c -0.049,-0.1222 -0.1692,-0.2081 -0.309,-0.2081 -0.1398,0 -0.2596,0.086 -0.3091,0.2081 h -0.416 c -0.05,-0.1222 -0.1692,-0.2081 -0.309,-0.2081 -0.1398,0 -0.26,0.086 -0.3095,0.2081 h -0.416 c -0.05,-0.1221 -0.1693,-0.2081 -0.3091,-0.2081 -0.1398,0 -0.2595,0.086 -0.309,0.2081 h -0.416 c -0.05,-0.1222 -0.1692,-0.2081 -0.309,-0.2081 -0.1398,0 -0.2595,0.086 -0.309,0.2081 h -0.416 c -0.049,-0.1222 -0.1692,-0.2081 -0.3091,-0.2081 -0.1398,0 -0.26,0.086 -0.3095,0.2081 h -0.4155 c -0.05,-0.1222 -0.1697,-0.2081 -0.3095,-0.2081 -0.1398,0 -0.2595,0.086 -0.309,0.2081 h -0.416 c -0.05,-0.1222 -0.1692,-0.2081 -0.3091,-0.2081 -0.1398,0 -0.2595,0.086 -0.309,0.2081 h -0.416 c -0.05,-0.1222 -0.1692,-0.2081 -0.309,-0.2081 -0.1398,0 -0.2595,0.086 -0.309,0.2081 h -0.416 c -0.049,-0.1222 -0.1692,-0.2081 -0.3091,-0.2081 -0.1398,0 -0.26,0.086 -0.3095,0.2081 h -0.4155 c -0.05,-0.1222 -0.1697,-0.2081 -0.3095,-0.2081 -0.1398,0 -0.2595,0.086 -0.309,0.2081 h -0.416 c -0.05,-0.1222 -0.1692,-0.2081 -0.3091,-0.2081 -0.1398,0 -0.2595,0.086 -0.309,0.2081 h -0.416 c -0.05,-0.1222 -0.1692,-0.2081 -0.309,-0.2081 -0.1398,0 -0.26,0.086 -0.3095,0.2081 h -0.4155 c -0.05,-0.1222 -0.1698,-0.2081 -0.3096,-0.2081 -0.1398,0 -0.2595,0.086 -0.309,0.2081 h -0.416 c -0.049,-0.1221 -0.1692,-0.2081 -0.309,-0.2081 -0.1398,0 -0.2595,0.086 -0.309,0.2081 h -0.416 c -0.05,-0.1222 -0.1692,-0.2081 -0.3091,-0.2081 -0.1398,0 -0.2595,0.086 -0.309,0.2081 h -0.416 c -0.049,-0.1222 -0.1692,-0.2081 -0.309,-0.2081 -0.1398,0 -0.26,0.086 -0.3095,0.2081 h -0.4155 c -0.05,-0.1222 -0.1698,-0.2081 -0.3096,-0.2081 -0.1398,0 -0.2595,0.086 -0.309,0.2081 h -0.416 c -0.049,-0.1222 -0.1692,-0.2081 -0.309,-0.2081 -0.1398,0 -0.2595,0.086 -0.309,0.2081 h -0.416 c -0.05,-0.1222 -0.1692,-0.2081 -0.3091,-0.2081 -0.1397,0 -0.2595,0.086 -0.309,0.2081 h -0.416 c -0.049,-0.1222 -0.1692,-0.2081 -0.309,-0.2081 -0.1398,0 -0.26,0.086 -0.3095,0.2081 h -0.4155 c -0.05,-0.1222 -0.1698,-0.2081 -0.3096,-0.2081 -0.1398,0 -0.2595,0.086 -0.309,0.2081 h -0.416 c -0.05,-0.1222 -0.1692,-0.2081 -0.309,-0.2081 -0.1398,0 -0.2595,0.086 -0.309,0.2081 h -0.416 c -0.05,-0.1222 -0.1692,-0.2081 -0.3091,-0.2081 -0.1398,0 -0.26,0.086 -0.3095,0.2081 h -0.4155 c -0.049,-0.1222 -0.1697,-0.2081 -0.3095,-0.2081 -0.1398,0 -0.2595,0.086 -0.309,0.2081 h -0.416 c -0.049,-0.1221 -0.1693,-0.2081 -0.3091,-0.2081 -0.1398,0 -0.2595,0.086 -0.309,0.2081 h -0.416 c -0.05,-0.1222 -0.1692,-0.2081 -0.309,-0.2081 -0.1398,0 -0.2595,0.086 -0.309,0.2081 h -0.416 c -0.05,-0.1222 -0.1692,-0.2081 -0.3091,-0.2081 -0.1398,0 -0.26,0.086 -0.3095,0.2081 h -0.4155 c -0.049,-0.1222 -0.1697,-0.2081 -0.3095,-0.2081 -0.1398,0 -0.2595,0.086 -0.309,0.2081 h -0.416 c -0.049,-0.1222 -0.1693,-0.2081 -0.3091,-0.2081 -0.1398,0 -0.2595,0.086 -0.309,0.2081 h -0.416 c -0.05,-0.1222 -0.1692,-0.2081 -0.309,-0.2081 -0.1398,0 -0.2595,0.086 -0.309,0.2081 h -0.416 c -0.049,-0.1222 -0.1692,-0.2081 -0.3091,-0.2081 -0.1398,0 -0.26,0.086 -0.3095,0.2081 h -0.4155 c -0.05,-0.1222 -0.1697,-0.2081 -0.3095,-0.2081 -0.1398,0 -0.2595,0.086 -0.309,0.2081 h -0.416 c -0.049,-0.1222 -0.1692,-0.2081 -0.3091,-0.2081 -0.1398,0 -0.2595,0.086 -0.309,0.2081 h -0.416 c -0.05,-0.1222 -0.1692,-0.2081 -0.309,-0.2081 -0.1398,0 -0.26,0.086 -0.3095,0.2081 h -0.4155 c -0.049,-0.1222 -0.1698,-0.2081 -0.3096,-0.2081 -0.1398,0 -0.2595,0.086 -0.309,0.2081 h -0.416 c -0.05,-0.1222 -0.1692,-0.2081 -0.309,-0.2081 -0.1398,0 -0.2595,0.086 -0.309,0.2081 h -0.416 c -0.05,-0.1222 -0.1692,-0.2081 -0.3091,-0.2081 -0.01,0 -0.011,-1e-4 -0.017,0 z m -57.00014,0 c -0.17611,0.01 -0.31624,0.1547 -0.31626,0.3332 v 5e-4 c 2.4e-4,0.1841 0.14937,0.3336 0.33332,0.3336 0.13995,0 0.26013,-0.086 0.30954,-0.2089 h 0.41548 c 0.0494,0.1223 0.16907,0.2089 0.30902,0.2089 0.13995,0 0.26014,-0.086 0.30954,-0.2089 h 0.41548 c 0.0494,0.1223 0.16959,0.2089 0.30954,0.2089 0.13995,0 0.25962,-0.086 0.30903,-0.2089 h 0.41599 c 0.0494,0.1223 0.16908,0.2089 0.30903,0.2089 0.13995,0 0.25962,-0.086 0.30902,-0.2089 h 0.41602 c 0.049,0.1223 0.169,0.2089 0.309,0.2089 0.1399,0 0.2601,-0.086 0.3095,-0.2089 h 0.4155 c 0.049,0.1223 0.1696,0.2089 0.3096,0.2089 0.1399,0 0.2596,-0.086 0.309,-0.2089 h 0.4155 c 0.049,0.1223 0.1696,0.2089 0.3095,0.2089 0.14,0 0.2596,-0.086 0.309,-0.2089 h 0.416 c 0.049,0.1223 0.1691,0.2089 0.3091,0.2089 0.1399,0 0.2596,-0.086 0.309,-0.2089 h 0.416 c 0.049,0.1223 0.169,0.2089 0.309,0.2089 0.1399,0 0.2601,-0.086 0.3095,-0.2089 h 0.4155 c 0.049,0.1223 0.1696,0.2089 0.3096,0.2089 0.1399,0 0.2596,-0.086 0.309,-0.2089 h 0.416 c 0.049,0.1223 0.1691,0.2089 0.309,0.2089 0.14,0 0.2596,-0.086 0.309,-0.2089 h 0.416 c 0.049,0.1223 0.1691,0.2089 0.3091,0.2089 0.1399,0 0.2601,-0.086 0.3095,-0.2089 h 0.4155 c 0.049,0.1223 0.1696,0.2089 0.3095,0.2089 0.14,0 0.2596,-0.086 0.309,-0.2089 h 0.4155 c 0.049,0.1223 0.1696,0.2089 0.3096,0.2089 0.1399,0 0.2596,-0.086 0.309,-0.2089 h 0.416 c 0.049,0.1223 0.1691,0.2089 0.309,0.2089 0.14,0 0.2596,-0.086 0.309,-0.2089 h 0.416 c 0.049,0.1223 0.1691,0.2089 0.3091,0.2089 0.1399,0 0.2601,-0.086 0.3095,-0.2089 h 0.4155 c 0.049,0.1223 0.1696,0.2089 0.3095,0.2089 0.14,0 0.2596,-0.086 0.309,-0.2089 h 0.416 c 0.049,0.1223 0.1691,0.2089 0.3091,0.2089 0.1399,0 0.2596,-0.086 0.309,-0.2089 h 0.416 c 0.049,0.1223 0.1691,0.2089 0.309,0.2089 0.1399,0 0.2596,-0.086 0.309,-0.2089 h 0.416 c 0.049,0.1223 0.1691,0.2089 0.3091,0.2089 0.1399,0 0.2601,-0.086 0.3095,-0.2089 h 0.4155 c 0.049,0.1223 0.1696,0.2089 0.3095,0.2089 0.14,0 0.2596,-0.086 0.309,-0.2089 h 0.416 c 0.049,0.1223 0.1691,0.2089 0.3091,0.2089 0.1399,0 0.2596,-0.086 0.309,-0.2089 h 0.416 c 0.049,0.1223 0.1691,0.2089 0.309,0.2089 0.14,0 0.2601,-0.086 0.3096,-0.2089 h 0.4154 c 0.049,0.1223 0.1696,0.2089 0.3096,0.2089 0.1399,0 0.2596,-0.086 0.309,-0.2089 h 0.4155 c 0.049,0.1223 0.1696,0.2089 0.3095,0.2089 0.14,0 0.2596,-0.086 0.309,-0.2089 h 0.416 c 0.049,0.1223 0.1691,0.2089 0.3091,0.2089 0.1399,0 0.2596,-0.086 0.309,-0.2089 h 0.416 c 0.049,0.1223 0.1691,0.2089 0.309,0.2089 0.14,0 0.2601,-0.086 0.3096,-0.2089 h 0.4154 c 0.049,0.1223 0.1696,0.2089 0.3096,0.2089 0.1399,0 0.2596,-0.086 0.309,-0.2089 h 0.416 c 0.049,0.1223 0.1691,0.2089 0.309,0.2089 0.14,0 0.2596,-0.086 0.309,-0.2089 h 0.416 c 0.049,0.1223 0.1691,0.2089 0.3091,0.2089 0.1399,0 0.2596,-0.086 0.309,-0.2089 h 0.416 c 0.049,0.1223 0.1691,0.2089 0.309,0.2089 0.14,0 0.2601,-0.086 0.3095,-0.2089 h 0.4155 c 0.049,0.1223 0.1696,0.2089 0.3096,0.2089 0.1399,0 0.2596,-0.086 0.309,-0.2089 h 0.416 c 0.049,0.1223 0.1691,0.2089 0.309,0.2089 0.14,0 0.2596,-0.086 0.309,-0.2089 h 0.416 c 0.049,0.1223 0.1691,0.2089 0.3091,0.2089 0.1399,0 0.2601,-0.086 0.3095,-0.2089 h 0.4155 c 0.049,0.1223 0.1696,0.2089 0.3095,0.2089 0.14,0 0.2596,-0.086 0.309,-0.2089 h 0.4155 c 0.049,0.1223 0.1696,0.2089 0.3096,0.2089 0.1399,0 0.2596,-0.086 0.309,-0.2089 h 0.416 c 0.049,0.1223 0.1691,0.2089 0.309,0.2089 0.14,0 0.2596,-0.086 0.309,-0.2089 h 0.416 c 0.049,0.1223 0.1691,0.2089 0.3091,0.2089 0.1399,0 0.2601,-0.086 0.3095,-0.2089 h 0.4155 c 0.049,0.1223 0.1696,0.2089 0.3095,0.2089 0.14,0 0.2596,-0.086 0.309,-0.2089 h 0.416 c 0.049,0.1223 0.1691,0.2089 0.3091,0.2089 0.1839,0 0.333,-0.1495 0.3333,-0.3336 v -5e-4 c 0,-0.1843 -0.1493,-0.3332 -0.3333,-0.3332 -0.14,0 -0.2597,0.086 -0.3091,0.2085 h -0.416 c -0.049,-0.1224 -0.169,-0.2085 -0.309,-0.2085 -0.14,0 -0.2601,0.086 -0.3095,0.2085 h -0.4155 c -0.049,-0.1224 -0.1696,-0.2085 -0.3095,-0.2085 -0.14,0 -0.2597,0.086 -0.3091,0.2085 h -0.416 c -0.049,-0.1224 -0.169,-0.2085 -0.309,-0.2085 -0.14,0 -0.2596,0.086 -0.309,0.2085 h -0.416 c -0.049,-0.1224 -0.1691,-0.2085 -0.309,-0.2085 -0.14,0 -0.2597,0.086 -0.3091,0.2085 h -0.416 c -0.049,-0.1224 -0.169,-0.2085 -0.309,-0.2085 -0.14,0 -0.2601,0.086 -0.3095,0.2085 h -0.4155 c -0.049,-0.1224 -0.1696,-0.2085 -0.3095,-0.2085 -0.14,0 -0.2597,0.086 -0.3091,0.2085 h -0.416 c -0.049,-0.1224 -0.169,-0.2085 -0.309,-0.2085 -0.14,0 -0.2596,0.086 -0.309,0.2085 h -0.416 c -0.049,-0.1224 -0.1691,-0.2085 -0.309,-0.2085 -0.14,0 -0.2602,0.086 -0.3096,0.2085 h -0.4155 c -0.049,-0.1224 -0.1695,-0.2085 -0.3095,-0.2085 -0.14,0 -0.2596,0.086 -0.309,0.2085 h -0.416 c -0.049,-0.1224 -0.1691,-0.2085 -0.309,-0.2085 -0.14,0 -0.2597,0.086 -0.3091,0.2085 h -0.416 c -0.049,-0.1224 -0.169,-0.2085 -0.309,-0.2085 -0.14,0 -0.2596,0.086 -0.309,0.2085 h -0.416 c -0.049,-0.1224 -0.1691,-0.2085 -0.309,-0.2085 -0.14,0 -0.2602,0.086 -0.3096,0.2085 h -0.4154 c -0.049,-0.1224 -0.1696,-0.2085 -0.3096,-0.2085 -0.14,0 -0.2596,0.086 -0.309,0.2085 h -0.416 c -0.049,-0.1224 -0.1691,-0.2085 -0.309,-0.2085 -0.14,0 -0.2597,0.086 -0.3091,0.2085 h -0.416 c -0.049,-0.1224 -0.169,-0.2085 -0.309,-0.2085 -0.1399,0 -0.2596,0.086 -0.309,0.2085 h -0.416 c -0.049,-0.1224 -0.1691,-0.2085 -0.309,-0.2085 -0.14,0 -0.2602,0.086 -0.3096,0.2085 h -0.416 c -0.049,-0.1224 -0.169,-0.2085 -0.309,-0.2085 -0.14,0 -0.2596,0.086 -0.309,0.2085 h -0.416 c -0.049,-0.1224 -0.1691,-0.2085 -0.309,-0.2085 -0.14,0 -0.2597,0.086 -0.3091,0.2085 h -0.416 c -0.049,-0.1224 -0.169,-0.2085 -0.309,-0.2085 -0.14,0 -0.2601,0.086 -0.3095,0.2085 h -0.4155 c -0.049,-0.1224 -0.1696,-0.2085 -0.3096,-0.2085 -0.1399,0 -0.2596,0.086 -0.309,0.2085 h -0.416 c -0.049,-0.1224 -0.169,-0.2085 -0.309,-0.2085 -0.14,0 -0.2596,0.086 -0.309,0.2085 h -0.416 c -0.049,-0.1224 -0.1691,-0.2085 -0.309,-0.2085 -0.14,0 -0.2597,0.086 -0.3091,0.2085 h -0.416 c -0.049,-0.1224 -0.169,-0.2085 -0.309,-0.2085 -0.14,0 -0.2601,0.086 -0.3095,0.2085 h -0.4155 c -0.049,-0.1224 -0.1696,-0.2085 -0.3096,-0.2085 -0.1399,0 -0.2596,0.086 -0.309,0.2085 h -0.416 c -0.049,-0.1224 -0.169,-0.2085 -0.309,-0.2085 -0.14,0 -0.2596,0.086 -0.309,0.2085 h -0.416 c -0.049,-0.1224 -0.1691,-0.2085 -0.309,-0.2085 -0.14,0 -0.2602,0.086 -0.3096,0.2085 h -0.4155 c -0.049,-0.1224 -0.169,-0.2085 -0.309,-0.2085 -0.14,0 -0.2601,0.086 -0.3095,0.2085 h -0.416 c -0.049,-0.1224 -0.1691,-0.2085 -0.309,-0.2085 -0.14,0 -0.2597,0.086 -0.3091,0.2085 h -0.416 c -0.049,-0.1224 -0.169,-0.2085 -0.309,-0.2085 -0.14,0 -0.2596,0.086 -0.309,0.2085 h -0.416 c -0.049,-0.1224 -0.1691,-0.2085 -0.309,-0.2085 -0.14,0 -0.2602,0.086 -0.3096,0.2085 h -0.4155 c -0.049,-0.1224 -0.1695,-0.2085 -0.3095,-0.2085 -0.14,0 -0.2596,0.086 -0.309,0.2085 h -0.416 c -0.049,-0.1224 -0.1691,-0.2085 -0.309,-0.2085 -0.14,0 -0.2597,0.086 -0.3091,0.2085 h -0.416 c -0.049,-0.1224 -0.169,-0.2085 -0.309,-0.2085 -0.14,0 -0.2596,0.086 -0.309,0.2085 h -0.416 c -0.049,-0.1224 -0.1691,-0.2085 -0.309,-0.2085 -0.14,0 -0.2602,0.086 -0.3096,0.2085 h -0.4155 c -0.049,-0.1224 -0.1695,-0.2085 -0.3095,-0.2085 -0.14,0 -0.2596,0.086 -0.309,0.2085 h -0.41602 c -0.0494,-0.1224 -0.16904,-0.2085 -0.30902,-0.2085 -0.13998,0 -0.25963,0.086 -0.30903,0.2085 h -0.41599 c -0.0494,-0.1224 -0.16905,-0.2085 -0.30903,-0.2085 -0.13997,0 -0.26014,0.086 -0.30954,0.2085 H 57.6768 c -0.0494,-0.1224 -0.16956,-0.2085 -0.30954,-0.2085 -0.13998,0 -0.25963,0.086 -0.30902,0.2085 h -0.416 c -0.0494,-0.1224 -0.16907,-0.2085 -0.30902,-0.2085 -0.006,0 -0.0114,-3e-4 -0.0171,0 z m 44.37814,0.7094 c -0.082,0 -0.162,0.033 -0.2232,0.094 -0.1306,0.1307 -0.1239,0.3478 0.012,0.4837 0.094,0.094 0.3133,0.2051 0.5142,0.2996 0.2008,0.094 0.3803,0.1677 0.3803,0.1677 0.012,0.01 0.027,1e-4 0.036,-0.01 h 5e-4 c 0.01,-0.01 0.012,-0.024 0.01,-0.036 0,0 -0.073,-0.1797 -0.1674,-0.3806 -0.094,-0.2012 -0.2053,-0.4209 -0.2992,-0.5148 -0.072,-0.072 -0.1671,-0.108 -0.26,-0.106 z m 5.0002,0 c -0.082,0 -0.162,0.033 -0.2232,0.094 -0.1306,0.1307 -0.1239,0.3478 0.012,0.4837 0.094,0.094 0.3133,0.2051 0.5142,0.2996 0.2009,0.094 0.3803,0.1677 0.3803,0.1677 0.012,0.01 0.027,1e-4 0.036,-0.01 h 5e-4 c 0.01,-0.01 0.012,-0.024 0.01,-0.036 0,0 -0.073,-0.1797 -0.1674,-0.3806 -0.094,-0.2012 -0.2053,-0.4209 -0.2992,-0.5148 -0.072,-0.072 -0.1671,-0.108 -0.26,-0.106 z m 4.9997,0 c -0.082,0 -0.162,0.033 -0.2232,0.094 -0.1306,0.1307 -0.1239,0.3478 0.012,0.4837 0.094,0.094 0.3133,0.2051 0.5142,0.2996 0.2009,0.094 0.3808,0.1677 0.3808,0.1677 0.012,0.01 0.027,1e-4 0.036,-0.01 v 0 c 0.01,-0.01 0.013,-0.024 0.01,-0.036 0,0 -0.074,-0.1797 -0.1679,-0.3806 -0.094,-0.2012 -0.2054,-0.4209 -0.2992,-0.5148 -0.072,-0.072 -0.1672,-0.108 -0.26,-0.106 z m -11.40549,0 c -0.088,0 -0.1755,0.038 -0.2434,0.106 -0.094,0.094 -0.2048,0.3136 -0.2992,0.5148 -0.094,0.201 -0.1674,0.3812 -0.1674,0.3812 0,0.012 0,0.027 0.01,0.036 h 5e-4 c 0.01,0.01 0.024,0.012 0.036,0.01 0,0 0.1794,-0.073 0.3803,-0.1682 0.2009,-0.094 0.4203,-0.2057 0.5142,-0.2996 0.1357,-0.1359 0.1425,-0.353 0.012,-0.4837 -0.065,-0.065 -0.1523,-0.096 -0.2398,-0.094 z m 5.00019,0 c -0.087,0 -0.1755,0.038 -0.2434,0.106 -0.094,0.094 -0.2048,0.3136 -0.2992,0.5148 -0.094,0.201 -0.1674,0.3812 -0.1674,0.3812 0,0.012 0,0.027 0.01,0.036 h 5e-4 c 0.01,0.01 0.024,0.012 0.036,0.01 0,0 0.1795,-0.073 0.3804,-0.1682 0.2008,-0.094 0.4202,-0.2057 0.5141,-0.2996 0.1358,-0.1359 0.1425,-0.353 0.012,-0.4837 -0.065,-0.065 -0.1522,-0.096 -0.2397,-0.094 z m 5.0003,0 c -0.088,0 -0.1761,0.038 -0.244,0.106 -0.094,0.094 -0.2048,0.3136 -0.2992,0.5148 -0.094,0.201 -0.1674,0.3812 -0.1674,0.3812 0,0.012 0,0.027 0.01,0.036 h 5e-4 c 0.01,0.01 0.024,0.012 0.036,0.01 0,0 0.1795,-0.073 0.3804,-0.1682 0.2008,-0.094 0.4202,-0.2057 0.5141,-0.2996 0.1358,-0.1359 0.1425,-0.353 0.012,-0.4837 -0.065,-0.065 -0.1517,-0.096 -0.2392,-0.094 z m -9.28939,0.2871 c -0.1847,0 -0.3333,0.1585 -0.3333,0.3507 0,0.1329 0.077,0.3667 0.1519,0.5759 0.075,0.2089 0.1509,0.388 0.1509,0.388 0.01,0.01 0.017,0.02 0.031,0.02 0.013,0 0.026,-0.01 0.031,-0.02 0,0 0.075,-0.1791 0.1504,-0.388 0.075,-0.2091 0.1519,-0.4429 0.1519,-0.5759 0,-0.1921 -0.1486,-0.3507 -0.3333,-0.3507 z m 5.00019,0 c -0.1847,0 -0.3333,0.1585 -0.3333,0.3507 0,0.1329 0.077,0.3667 0.1519,0.5759 0.075,0.2089 0.1509,0.388 0.1509,0.388 0,0.01 0.017,0.02 0.03,0.02 0.013,0 0.026,-0.01 0.031,-0.02 0,0 0.075,-0.1791 0.1504,-0.388 0.075,-0.2091 0.1519,-0.4429 0.1519,-0.5759 0,-0.1921 -0.1486,-0.3507 -0.3333,-0.3507 z m 4.9997,0 c -0.1847,0 -0.3333,0.1585 -0.3333,0.3507 0,0.1329 0.077,0.3667 0.1519,0.5759 0.075,0.2089 0.1509,0.388 0.1509,0.388 0.01,0.01 0.017,0.02 0.031,0.02 h 5e-4 c 0.013,0 0.025,-0.01 0.03,-0.02 0,0 0.075,-0.1791 0.1504,-0.388 0.075,-0.2091 0.1519,-0.4429 0.1519,-0.5759 0,-0.1921 -0.1486,-0.3507 -0.3333,-0.3507 z" />
    <g
       id="g105223"
       transform="translate(106.16432,-51.6278)">
      <path
         id="rect78909-0-1-6-2-2-5"
         style="fill:#754232;fill-opacity:1;stroke:none;stroke-width:0.249998;stroke-linecap:round;stroke-linejoin:round;stroke-dasharray:none;stroke-opacity:1;paint-order:stroke markers fill"
         d="m -1.1643,51.6278 c -3.0374,0 -5.5002,2.4625 -5.4999,5.4999 l 5e-4,5.4994 10.9988,6e-4 h 5e-4 87.9993 V 54.6276 H 4.3351 v 2.465 c -0.019,-3.0211 -2.474,-5.4648 -5.4994,-5.4648 z m -5.4999,5.4999 v -2.5001 h -87.99993 v 8.0001 H -6.6642 Z" />
      <path
         id="path77366-5-9-5-5-4-1-2-6-7"
         style="fill:#cd894a;fill-opacity:1;stroke-width:0.249999;stroke-linecap:round;stroke-linejoin:round;paint-order:stroke markers fill"
         d="m 3.3357,58.1281 v 4.4997 l -8.9996,-5e-4 -4e-4,-4.4997 c -2e-4,-2.4852 2.0146,-4.4998 4.4998,-4.4998 2.4852,0 4.5002,2.015 4.5002,4.5003 z"
         sodipodi:nodetypes="sccsss" />
      <path
         id="path77366-5-9-5-3-4-1-6-1-1-7"
         style="fill:#e6b983;fill-opacity:1;stroke-width:0.25;stroke-linecap:round;stroke-linejoin:round;paint-order:stroke markers fill"
         d="m -1.1643,56.6316 c -1.6568,0 -3,1.343 -2.9998,2.9999 l 5e-4,2.9998 H 1.836 v -2.9998 c 0,-1.6568 -1.3435,-2.9999 -3.0003,-2.9999 z m -25.5003,1.9958 c -1.1045,0 -1.9999,0.8953 -1.9998,1.9999 l 5e-4,1.9998 3.9997,6e-4 v -1.9999 c 0,-1.1046 -0.8959,-2.0004 -2.0004,-2.0004 z m -63.99973,5e-4 c -1.1045,0 -2,0.8953 -1.9999,1.9999 v 1.9999 h 3.9998 v -1.9999 c 0,-1.1046 -0.8954,-1.9999 -1.9999,-1.9999 z m 8,0 c -1.1045,0 -1.9999,0.8953 -1.9998,1.9999 v 1.9999 h 3.99973 v -1.9999 c 0,-1.1046 -0.8953,-1.9999 -1.99993,-1.9999 z m 8.00013,0 c -1.1045,0 -2,0.8953 -1.9999,1.9999 v 1.9999 h 3.9998 v -1.9999 c 0,-1.1046 -0.8954,-1.9999 -1.9999,-1.9999 z m 8,0 c -1.1045,0 -2,0.8953 -1.9999,1.9999 v 1.9999 h 3.9998 v -1.9999 c 0,-1.1046 -0.8954,-1.9999 -1.9999,-1.9999 z m 8,0 c -1.1045,0 -2.0005,0.8953 -2.0004,1.9999 l 6e-4,1.9999 h 3.9997 v -1.9999 c 0,-1.1046 -0.8953,-1.9999 -1.9999,-1.9999 z m 8.0001,0 c -1.1045,0 -2.0005,0.8953 -2.0004,1.9999 l 5e-4,1.9999 h 3.9997 v -1.9999 c 0,-1.1046 -0.8953,-1.9999 -1.9998,-1.9999 z m 7.9995,0 c -1.1045,0 -2,0.8953 -1.9999,1.9999 l 5e-4,1.9999 h 3.9998 v -1.9999 c 0,-1.1046 -0.8959,-1.9999 -2.0004,-1.9999 z m 8,0 c -1.1045,0 -2,0.8953 -1.9999,1.9999 l 5e-4,1.9999 h 3.9998 v -1.9999 c 0,-1.1046 -0.8959,-1.9999 -2.0004,-1.9999 z m 16.0001,0 c -1.1046,0 -2,0.8953 -1.9999,1.9999 l 5e-4,1.9999 h 3.9998 v -1.9999 c 0,-1.1046 -0.8959,-1.9999 -2.0004,-1.9999 z m 8,0 c -1.1045,0 -2,0.8953 -1.9999,1.9999 v 1.9999 h 4.0003 v -1.9999 c 0,-1.1046 -0.8959,-1.9999 -2.0004,-1.9999 z m 18.9999,0 c -1.1045,0 -2,0.8953 -1.9999,1.9999 v 1.9999 h 3.9997 v -1.9999 c 0,-1.1046 -0.8953,-1.9999 -1.9998,-1.9999 z m 8,0 c -1.1045,0 -2,0.8953 -1.9999,1.9999 v 1.9999 h 3.9998 v -1.9999 c 0,-1.1046 -0.8954,-1.9999 -1.9999,-1.9999 z m 8,0 c -1.1045,0 -2,0.8953 -1.9999,1.9999 v 1.9999 l 3.9998,5e-4 v -1.9999 c 0,-1.1046 -0.8954,-2.0004 -1.9999,-2.0004 z m 8,0 c -1.1045,0 -1.9999,0.8953 -1.9998,1.9999 v 1.9999 h 3.9997 v -1.9999 c 0,-1.1046 -0.8953,-1.9999 -1.9999,-1.9999 z m 8.0001,0 c -1.1045,0 -2,0.8953 -1.9999,1.9999 v 1.9999 h 3.9998 v -1.9999 c 0,-1.1046 -0.8954,-1.9999 -1.9999,-1.9999 z m 8,0 c -1.1045,0 -2,0.8953 -1.9999,1.9999 v 1.9999 h 3.9998 v -1.9999 c 0,-1.1046 -0.8954,-1.9999 -1.9999,-1.9999 z m 8,0 c -1.1045,0 -1.9999,0.8953 -1.9998,1.9999 v 1.9999 l 3.9997,5e-4 v -1.9999 c 0,-1.1046 -0.8953,-2.0004 -1.9999,-2.0004 z m 8.0001,0 c -1.1045,0 -2,0.8953 -1.9999,1.9999 v 1.9999 h 3.9997 v -1.9999 c 0,-1.1046 -0.8953,-1.9999 -1.9998,-1.9999 z m 8,0 c -1.1045,0 -2.0005,0.8953 -2.0004,1.9999 l 5e-4,1.9999 h 3.9998 v -1.9999 c 0,-1.1046 -0.8954,-1.9999 -1.9999,-1.9999 z m 7.9995,0 c -1.1045,0 -2,0.8953 -1.9999,1.9999 l 5e-4,1.9999 h 3.9998 v -1.9999 c 0,-1.1046 -0.8959,-1.9999 -2.0004,-1.9999 z m 8,0 c -1.1045,0 -1.9999,0.8953 -1.9998,1.9999 l 5e-4,1.9999 h 3.9997 v -1.9999 c 0,-1.1046 -0.8959,-1.9999 -2.0004,-1.9999 z" />
      <path
         id="rect78911-9-0-28-1-9-6"
         style="fill:#361c1b;fill-opacity:1;stroke:none;stroke-width:0.249999;stroke-linecap:round;stroke-linejoin:round;stroke-dasharray:none;stroke-opacity:1;paint-order:stroke markers fill"
         d="m -23.6642,53.6272 0.5002,1.0004 v 8.0001 h 0.9999 v -8.0001 l 0.5003,-1.0004 h -0.5003 -0.9999 z m -72.00033,5e-4 0.5002,0.9999 v 8.0001 h 0.9999 v -8.0001 l 0.5003,-0.9999 h -0.5003 -0.9999 z m 8,0 0.5002,0.9999 v 8.0001 h 1 v -8.0001 l 0.5002,-0.9999 h -0.5002 -1 z m 8.00013,0 0.5002,0.9999 v 8.0001 h 0.9999 v -8.0001 l 0.5002,-0.9999 h -0.5002 -0.9999 z m 8,0 0.5002,0.9999 v 8.0001 h 1 v -8.0001 l 0.5002,-0.9999 h -0.5002 -1 z m 8,0 0.5002,0.9999 v 8.0001 h 1 v -8.0001 l 0.5002,-0.9999 h -0.5002 -1 z m 8,0 0.5003,0.9999 v 8.0001 h 0.9999 v -8.0001 l 0.5002,-0.9999 h -0.5002 -0.9999 z m 8.0001,0 0.5002,0.9999 v 8.0001 h 0.9999 v -8.0001 l 0.5003,-0.9999 h -0.5003 -0.9999 z m 8,0 0.5002,0.9999 v 8.0001 h 1 v -8.0001 l 0.5002,-0.9999 h -0.5002 -1 z m 8,0 0.5003,0.9999 v 8.0001 h 0.9999 v -8.0001 l 0.5002,-0.9999 h -0.5002 -0.9999 z m 16.0001,0 0.5002,0.9999 v 8.0001 h 1 v -8.0001 l 0.5002,-0.9999 h -0.5002 -1 z m 8,0 0.5002,0.9999 v 8.0001 h 1 v -8.0001 l 0.5002,-0.9999 h -0.5002 -1 z m 10.9993,0 0.5003,0.9999 v 8.0001 H 4.8353 V 54.6276 L 5.3355,53.6277 H 4.8353 3.8354 Z m 8.0001,0 0.5002,0.9999 v 8.0001 h 0.9999 v -8.0001 l 0.5003,-0.9999 h -0.5003 -0.9999 z m 8,0 0.5002,0.9999 v 8.0001 h 1 v -8.0001 l 0.5002,-0.9999 h -0.5002 -1 z m 8,0 0.5003,0.9999 v 8.0001 h 0.9999 v -8.0001 l 0.5002,-0.9999 h -0.5002 -0.9999 z m 8.0001,0 0.5002,0.9999 v 8.0001 h 0.9999 v -8.0001 l 0.5003,-0.9999 h -0.5003 -0.9999 z m 8,0 0.5002,0.9999 v 8.0001 h 1 v -8.0001 l 0.5002,-0.9999 h -0.5002 -1 z m 8,0 0.5002,0.9999 v 8.0001 h 1 v -8.0001 l 0.5002,-0.9999 h -0.5002 -1 z m 8,0 0.5003,0.9999 v 8.0001 h 0.9999 v -8.0001 l 0.5002,-0.9999 h -0.5002 -0.9999 z m 8.0001,0 0.5002,0.9999 v 8.0001 h 0.9999 v -8.0001 l 0.5003,-0.9999 h -0.5003 -0.9999 z m 8,0 0.5002,0.9999 v 8.0001 h 1 v -8.0001 l 0.5002,-0.9999 h -0.5002 -1 z m 8,0 0.5003,0.9999 v 8.0001 h 0.9999 v -8.0001 l 0.5002,-0.9999 h -0.5002 -0.9999 z m 8.0001,0 0.5002,0.9999 v 8.0001 h 0.9999 v -8.0001 l 0.5003,-0.9999 h -0.5003 -0.9999 z" />
    </g>
    <path
       id="path3687-7-0"
       style="fill:#754232;fill-opacity:1;stroke-width:0.264583px"
       d="m 93.044493,32.489103 0.2445,-0.148799 0.1574,0.157299 0.2323,-0.083 0.089,-0.553299 0.9932,-0.8587 0.2869,0.01 0.6287,0.6305 0.3755,-0.3709 -0.2321,-0.2321 0.1999,-0.353 -0.1925,-0.1924 2.6691,-2.6691 -0.021,-1.3026 -1.3026,-0.021 -2.6691,2.6691 -0.1924,-0.1924 -0.3531,0.1998 -0.232,-0.232 -0.3709,0.3754 0.6305,0.6288 0.01,0.2869 -0.8587,0.9932 -0.5533,0.089 -0.083,0.2323 0.1573,0.1573 -0.1489,0.244599 z"
       sodipodi:nodetypes="cccccccccccccccccccccccccccc" />
    <path
       id="path11023-6-9-4-7"
       style="color:#000000;fill:#754232;fill-opacity:1;stroke:none;stroke-width:1;-inkscape-stroke:none"
       d="m 110.8639,26.499954 -0.7667,0.4878 0.1492,0.1671 -0.029,0.029 0.8242,0.9619 0.6857,2.051 -0.1913,0.191299 -0.3958,-0.03 -0.9995,0.999401 0.7914,0.307 0.3071,0.7914 0.9994,-0.999401 -0.03,-0.3959 0.1912,-0.191199 2.0511,0.6857 0.96189,0.8242 0.029,-0.029 0.1671,0.1494 0.4878,-0.7669 -0.8077,-0.7873 c 0.1281,-0.48 0.1277,-0.974 -0.01,-1.4018 -0.082,-0.2561 -0.2145,-0.495501 -0.4301,-0.6731 -0.084,-0.069 -0.18259,-0.1228 -0.28959,-0.1608 l 0.49499,-0.495101 0.5625,0.5625 0.303,-2.101 -2.13409,0.269901 0.5956,0.5955 -0.4951,0.495 c -0.038,-0.107 -0.092,-0.2058 -0.1608,-0.2894 -0.1776,-0.215701 -0.4169,-0.3478 -0.6731,-0.4302 -0.4278,-0.1375 -0.9218,-0.1379 -1.4018,-0.01 z m 1.4253,1.7107 c 0.17,0 0.3157,0.024 0.422,0.066 0.1109,0.043 0.1738,0.1 0.196,0.1308 0.022,0.031 0.022,0.027 0.014,0.061 l -0.049,0.2116 0.1411,0.1649 c 0.01,0.011 0.021,0.023 0.031,0.035 l -0.6568,0.6569 -0.4276,-1.2898 c 0.1164,-0.024 0.2272,-0.035 0.3293,-0.036 z m 1.4282,1.3421 c 0.012,0.01 0.024,0.021 0.035,0.031 l 0.1649,0.141199 0.2116,-0.049 c 0.034,-0.01 0.03,-0.01 0.061,0.014 0.031,0.022 0.088,0.085 0.1308,0.196 0.066,0.17 0.093,0.440899 0.029,0.7512 l -1.2898,-0.427601 z"
       sodipodi:nodetypes="ccccccccccccccccccccsscccccccsscccssccccccsccccsscccc" />
    <path
       id="path42570-2-6-8"
       style="fill:#e6b983;fill-opacity:1;stroke-width:0.264583px"
       d="m 167.5342,16.9999 c -0.86375,1.496239 2.1504,5.107878 3.11414,6.15537 -3.64664,6.316201 -7.78578,8.229103 -7.74869,12.353238 0.0417,4.124134 4.81788,6.491199 12.49948,6.491199 7.68203,0 12.46282,-2.367065 12.49991,-6.491199 0.0417,-3.823721 -3.52081,-5.748706 -6.94495,-11.041582 2.81081,0.963326 4.46705,3.05081 4.74288,5.082044 a 0.98302304,0.98302304 0 0 0 1.10624,0.842077 0.98302304,0.98302304 0 0 0 0.84208,-1.106241 c -0.25833,-1.895402 -1.33499,-3.668722 -3.00498,-5.002462 0.49167,0.174999 0.89375,0.387497 1.15916,0.595829 a 0.98302304,0.98302304 0 0 0 1.37957,-0.170832 0.98302304,0.98302304 0 0 0 -0.17083,-1.379573 c -1.06791,-0.832493 -2.78914,-1.478738 -4.89204,-1.398739 -0.325,0 -0.6575,0.04167 -0.99875,0.09167 1.22124,-1.526655 2.8029,-3.882887 2.14665,-5.019961 0,0 -0.68291,0.932493 -1.82665,0.932493 -1.14416,0 -1.54665,-0.604162 -2.71081,-0.604162 -1.16416,0 -1.6704,1.104158 -3.32789,1.104158 -1.65707,0 -2.16332,-1.104158 -3.32748,-1.104158 -1.16415,0 -1.56665,0.604162 -2.71081,0.604162 -1.14374,0 -1.82665,-0.932493 -1.82665,-0.932493 z" />
    <path
       id="path53707-6-0-1-2-1"
       style="fill:#754232;fill-opacity:1;stroke:none;stroke-width:0.264583px;stroke-linecap:butt;stroke-linejoin:miter;stroke-opacity:1"
       d="m 60.33868,26.499803 c -2.6262,0 -3.0365,1.746301 -3.0365,2.510801 0,0.7645 0.6579,0.8778 0.778,1.3871 0.081,0.352 0.3946,1.2832 0.1106,2.102099 h 3.0536 c -0.023,-0.178899 -0.055,-0.322499 -0.086,-0.426099 0.8352,0.019 1.5739,0.208199 1.4393,-0.7197 0.065,-0.1078 0.1202,-0.074 0.1485,-0.1799 0.028,-0.105801 -0.056,-0.1716 -0.056,-0.1716 0,0 0.1018,0.017 0.1664,-0.091 0.065,-0.1079 -0.021,-0.165299 -0.01,-0.332699 0.1641,-0.095 0.4529,-0.082 0.4529,-0.3065 0,-0.1941 -0.3994,-0.8018 -0.5027,-0.962801 -0.015,-0.023 -0.021,-0.062 -0.01,-0.115699 0.013,-0.054 0.066,-0.154801 0.094,-0.2324 0.028,-0.079 0.08,-2.461601 -2.5461,-2.461601 z m 0.031,0.419401 c 1.3203,0 2.1105,1.1504 2.1105,1.8318 0,0.9832 -0.6426,1.1562 -1.2035,0.9698 -0.1461,0.6761 -0.7685,0.655699 -1.1215,0.2181 -0.1677,0.4502 -0.1697,0.049 -0.5318,0.7014 -0.069,-0.035 -0.1278,-0.078 -0.1745,-0.1296 l 0.082,-0.1227 c -0.307,0.2242 -1.3301,-0.2899 -1.1715,-0.8273 -0.1964,-0.048 -0.5147,-0.1257 -0.5147,-0.5555 0,-0.5272 0.6154,-2.086 2.5251,-2.086 z"
       sodipodi:nodetypes="sscccccscscssssssssccccccss" />
    <path
       style="fill:#754232;fill-opacity:1;stroke:none;stroke-width:0.264583px;stroke-linecap:butt;stroke-linejoin:miter;stroke-opacity:1"
       d="m 22.10061,30.914004 c 0.8593,-0.6285 1.6316,-0.3593 2.4204,-0.2597 0.4467,-0.3066 0.9785,-0.4536 1.6229,-0.3895 -0.021,-0.7821 -0.1401,-1.5508 -0.9645,-2.5085 -1.4497,0.017 -1.5092,-0.2719 -1.7619,-0.408 0.093,-0.3382 0.3217,-0.5945 0.5564,-0.848501 0.899,0.141101 1.3945,0.472201 1.8825,0.806801 1.277,1.524099 2.1868,2.8035 2.2442,3.5146 -0.7363,0.8339 -2.8441,1.576699 -4.3678,1.4189 -0.1739,0.205 -0.2695,0.259699 -0.7883,0.259699 -0.5188,0 -0.8468,-0.457399 -0.8439,-1.585799 z"
       id="path51431-2-5-1"
       sodipodi:nodetypes="ccccccccczc" />
    <path
       style="fill:#754232;fill-opacity:1;stroke:none;stroke-width:0.264583px;stroke-linecap:butt;stroke-linejoin:miter;stroke-opacity:1"
       d="m 44.251657,28.103854 -0.9365,0.9678 0.84,2.1541 1.1902,0.4359 c 0.1697,0.055 0.2694,0.1631 0.3094,0.3404 l 0.046,0.362899 c 0.01,0.063 -0.104,0.134901 -0.1624,0.134901 h -2.4624 c 0,0 -2.9526,-2.4605 -3.1798,-2.687601 -0.2271,-0.227199 -0.2988,-0.678799 0.023,-0.8647 0.322,-0.1858 1.0687,-0.6648 1.4443,-1.040499 l 1.0203,-1.407301 z"
       id="path52907-53-7-1-7"
       sodipodi:nodetypes="cccccscczzccc" />
    <path
       id="rect61277-8-3-60-3-8"
       style="fill:#754232;fill-opacity:1;stroke-width:15;stroke-linecap:round;stroke-linejoin:round;paint-order:stroke markers fill"
       d="m 75.650086,26.500104 c 0,0.375 -0.3748,0.7498 -0.7498,0.7498 0.375,0 0.7498,0.3749 0.7498,0.7499 0,-0.375 0.3749,-0.7499 0.7499,-0.7499 -0.375,0 -0.7499,-0.3748 -0.7499,-0.7498 z m 2.25,0 a 1.5,1.5 0 0 0 -1.5001,1.4997 1.5,1.5 0 0 0 1.0009,1.4138 v 0.086 h -0.9844 a 0.50005,0.50005 0 0 0 -0.3442,0.1364 l -1.0154,0.9612 a 0.50005,0.50005 0 0 0 0.045,0.7638 l 1.3751,1.0175 a 0.5,0.5 0 0 0 0.464,0.068 c 0,0.019 -0.01,0.036 -0.011,0.053 h 1.9414 c 0,-0.017 -0.01,-0.035 -0.012,-0.053 a 0.5,0.5 0 0 0 0.465,-0.068 l 1.3731,-1.0175 a 0.50005,0.50005 0 0 0 0.047,-0.7638 l -1.0175,-0.9612 a 0.50005,0.50005 0 0 0 -0.3416,-0.1364 h -0.9844 v -0.086 a 1.5,1.5 0 0 0 0.9994,-1.4133 1.5,1.5 0 0 0 -1.5002,-1.4997 z m 2.25,1.4661 c 0,0.375 -0.3748,0.7503 -0.7498,0.7503 0.375,0 0.7498,0.3749 0.7498,0.7498 0,-0.3749 0.3749,-0.7498 0.7499,-0.7498 -0.375,0 -0.7499,-0.3753 -0.7499,-0.7503 z m -3.5346,2.5332 h 0.1162 c 0.04,0.3293 0.09,0.641 0.1328,0.9219 l -0.6862,-0.508 z m 2.451,0 h 0.1194 l 0.4377,0.4139 -0.6915,0.5106 c 0.043,-0.283 0.094,-0.5962 0.1344,-0.9245 z" />
    <path
       id="path21120-1-5-7-6-2-2"
       style="fill:#754232;fill-opacity:1;stroke:none;stroke-width:0.264583px;stroke-linecap:butt;stroke-linejoin:miter;stroke-opacity:1"
       d="m 132.40059,32.333954 c 0.091,-1.028 0.2974,-2.334801 0.1902,-3.5563 l -0.1612,-0.112701 0.015,-0.281099 0.3623,0.3318 c 0.4867,-0.2215 0.8909,-0.7007 0.8909,-1.3633 -1.0513,-0.7932 -1.4228,-0.8526 -1.8242,-0.8526 0.019,0.033 -0.023,0.5122 -0.094,0.6532 -0.344,0.06 -0.7294,0.095 -1.082,0.095 -0.3527,0 -0.738,-0.035 -1.0819,-0.095 -0.071,-0.141 -0.1131,-0.620201 -0.094,-0.6532 -0.4015,0 -0.773,0.059 -1.8242,0.8526 0,0.6626 0.4043,1.1418 0.891,1.3633 l 0.3622,-0.3318 0.015,0.281099 -0.1618,0.112701 c -0.1072,1.221499 0.1,2.5283 0.1907,3.5563 0.4324,0.137 0.8823,0.1659 1.7031,0.1659 0.8205,0 1.2704,-0.029 1.7029,-0.1659 z"
       sodipodi:nodetypes="ccccccccccccccccccc" />
    <path
       style="fill:#754232;fill-opacity:1;stroke:none;stroke-width:0.264583px;stroke-linecap:butt;stroke-linejoin:miter;stroke-opacity:1"
       d="m 145.2986,27.914104 c 0,-0.6209 0.4676,-1.414301 1.4283,-1.414301 0.9607,0 1.5882,0.7072 1.5882,0.7072 0,0 0.5945,-0.7072 1.5552,-0.7072 0.9607,0 1.4283,0.793401 1.4283,1.414301 0,2.0745 -3,4.585699 -3,4.585699 0,0 -3,-2.511199 -3,-4.585699 z"
       id="path42059-9-5-6-8"
       sodipodi:nodetypes="szcsscs" />
  </g>
</svg>
